<svg xmlns="http://www.w3.org/2000/svg" width="48" height="48" viewBox="0 0 48 48">
    <g fill="none">
        <path fill="#000" d="M23.375 16c1.11 0 2.5-.793 3.328-1.851.75-.959 1.297-2.298 1.297-3.637 0-.181-.016-.363-.047-.512-1.234.05-2.719.876-3.61 1.983-.702.843-1.343 2.166-1.343 3.521 0 .198.031.397.047.463.078.016.203.033.328.033zM19.71 35c1.592 0 2.297-1.035 4.282-1.035 2.018 0 2.461 1.003 4.233 1.003 1.74 0 2.904-1.56 4.003-3.09 1.23-1.751 1.74-3.471 1.772-3.551-.115-.032-3.445-1.354-3.445-5.065 0-3.217 2.625-4.666 2.772-4.778-1.739-2.42-4.38-2.484-5.102-2.484-1.952 0-3.544 1.147-4.545 1.147-1.082 0-2.51-1.083-4.2-1.083-3.215 0-6.48 2.58-6.48 7.453 0 3.026 1.214 6.227 2.707 8.298C16.987 33.567 18.102 35 19.71 35z"/>
    </g>
</svg>
