<?xml version="1.0" encoding="UTF-8"?>
<svg width="24px" height="24px" viewBox="0 0 24 24" version="1.1" xmlns="http://www.w3.org/2000/svg" xmlns:xlink="http://www.w3.org/1999/xlink">
    <!-- Generator: Sketch 63.1 (92452) - https://sketch.com -->
    <title>Facebook</title>
    <desc>Created with Sketch.</desc>
    <defs>
        <polygon id="path-1" points="5e-05 0 23.8 0 23.8 23.8 5e-05 23.8"></polygon>
    </defs>
    <g id="01-Mobile-APP-design-iOS-v2" stroke="none" stroke-width="1" fill="none" fill-rule="evenodd">
        <g id="1.0Des-Discover" transform="translate(-599.000000, -2820.000000)">
            <g id="Facebook" transform="translate(599.000000, 2820.000000)">
                <mask id="mask-2" fill="white">
                    <use xlink:href="#path-1"></use>
                </mask>
                <g id="Clip-2"></g>
                <path d="M22.48505,0 L1.31505,0 C0.58855,0 5e-05,0.589 5e-05,1.315 L5e-05,22.485 C5e-05,23.211 0.58855,23.8 1.31505,23.8 L12.71005,23.8 L12.71005,14.585 L9.61005,14.585 L9.61005,10.99 L12.71005,10.99 L12.71005,8.345 C12.71005,5.27 14.59005,3.595 17.32955,3.595 C18.25705,3.5935 19.18305,3.6405 20.10505,3.735 L20.10505,6.95 L18.20005,6.95 C16.70005,6.95 16.42005,7.66 16.42005,8.7 L16.42005,10.99 L19.98005,10.99 L19.51505,14.585 L16.42005,14.585 L16.42005,23.8 L22.48505,23.8 C23.21105,23.8 23.80005,23.211 23.80005,22.485 L23.80005,1.315 C23.80005,0.589 23.21105,0 22.48505,0" id="Fill-1" fill="#FFFFFF" mask="url(#mask-2)"></path>
            </g>
        </g>
    </g>
</svg>