<?xml version="1.0" encoding="UTF-8"?>
<svg width="24px" height="25px" viewBox="0 0 24 25" version="1.1" xmlns="http://www.w3.org/2000/svg" xmlns:xlink="http://www.w3.org/1999/xlink">
    <!-- Generator: Sketch 63.1 (92452) - https://sketch.com -->
    <title>Linkedin</title>
    <desc>Created with Sketch.</desc>
    <defs>
        <polygon id="path-1" points="5e-05 0.24505 5.72005 0.24505 5.72005 24 5e-05 24"></polygon>
        <polygon id="path-3" points="0.4199 0.23640036 15.8149 0.23640036 15.8149 16.5 0.4199 16.5"></polygon>
    </defs>
    <g id="01-Mobile-APP-design-iOS-v2" stroke="none" stroke-width="1" fill="none" fill-rule="evenodd">
        <g id="1.0Des-Discover" transform="translate(-743.000000, -2819.000000)">
            <g id="Linkedin" transform="translate(743.000000, 2819.000000)">
                <g id="Group-3" transform="translate(0.000000, 0.255000)">
                    <mask id="mask-2" fill="white">
                        <use xlink:href="#path-1"></use>
                    </mask>
                    <g id="Clip-2"></g>
                    <path d="M2.86005,0.24505 C4.43955,0.24505 5.72005,1.52555 5.72005,3.10505 C5.72005,4.68455 4.43955,5.96505 2.86005,5.96505 C1.28055,5.96505 5e-05,4.68455 5e-05,3.10505 C5e-05,1.52555 1.28055,0.24505 2.86005,0.24505 L2.86005,0.24505 Z M0.39005,24.00005 L5.32505,24.00005 L5.32505,8.13005 L0.39005,8.13005 L0.39005,24.00005 Z" id="Fill-1" fill="#FFFFFF" mask="url(#mask-2)"></path>
                </g>
                <g id="Group-6" transform="translate(8.000000, 7.755000)">
                    <mask id="mask-4" fill="white">
                        <use xlink:href="#path-3"></use>
                    </mask>
                    <g id="Clip-5"></g>
                    <path d="M0.4199,0.63005 L5.1449,0.63005 L5.1449,2.80005 L5.2349,2.80005 C6.1994,1.15205 7.9924,0.16855 9.8999,0.24005 C14.8999,0.24005 15.8149,3.52505 15.8149,7.79505 L15.8149,16.50005 L10.8849,16.50005 L10.8849,8.78505 C10.8849,6.94505 10.8549,4.57505 8.3249,4.57505 C5.7949,4.57505 5.3649,6.57505 5.3649,8.65005 L5.3649,16.50005 L0.4404,16.50005 L0.4199,0.63005 Z" id="Fill-4" fill="#FFFFFF" mask="url(#mask-4)"></path>
                </g>
            </g>
        </g>
    </g>
</svg>