<svg xmlns="http://www.w3.org/2000/svg" width="55" height="54" viewBox="0 0 55 54">
    <defs>
        <filter id="fb__a" width="122.9%" height="122.9%" x="-11.5%" y="-7.3%" filterUnits="objectBoundingBox">
            <feOffset dy="2" in="SourceAlpha" result="shadowOffsetOuter1"/>
            <feGaussianBlur in="shadowOffsetOuter1" result="shadowBlurOuter1" stdDeviation="1.5"/>
            <feColorMatrix in="shadowBlurOuter1" values="0 0 0 0 0 0 0 0 0 0 0 0 0 0 0 0 0 0 0.2 0"/>
        </filter>
        <rect id="fb__b" width="48" height="48" x=".5" y="0" rx="2"/>
    </defs>
    <g fill="none" fill-rule="evenodd" transform="translate(1 1)">
        <g fill-rule="nonzero">
            <path fill="#4267B2" d="M24.566 0H1.434C.642 0 0 .642 0 1.434v23.132C0 25.358.642 26 1.434 26h12.463V15.945h-3.385V12.01h3.385V9.113c0-3.357 2.053-5.186 5.047-5.186 1.01-.002 2.018.049 3.022.152v3.51h-2.063c-1.631 0-1.95.771-1.95 1.91v2.506h3.9l-.506 3.936H17.93V26h6.635c.792 0 1.434-.642 1.434-1.434V1.434C26 .642 25.358 0 24.566 0z" transform="translate(11.5 11)"/>
            <path fill="#FFF" d="M17.469 26v-9.87h3.53l.528-3.863h-4.058v-2.46c0-1.117.331-1.874 2.029-1.874h2.169v-3.45c-1.046-.102-2.097-.152-3.149-.15-3.12 0-5.247 1.796-5.247 5.091v2.843H9.75v3.863h3.521V26h4.198z" transform="translate(11.5 11)"/>
        </g>
    </g>
</svg>
