<svg xmlns="http://www.w3.org/2000/svg" xmlns:xlink="http://www.w3.org/1999/xlink" width="22" height="20" viewBox="0 0 22 20">
    <defs>
        <path id="96ros4hfoa" d="M0 0.002L21.45 0.002 21.45 19.839 0 19.839z"/>
    </defs>
    <g fill="none" fill-rule="evenodd">
        <path fill="#021924" d="M10.725 15.125c-2.278 0-4.125 1.11-4.125 2.75 0 1.056.091 2.118.271 3.134 1.196.46 2.492.714 3.85.714 1.36 0 2.66-.256 3.858-.718.18-1.014.271-2.075.271-3.13 0-1.64-1.847-2.75-4.125-2.75M10.725 8.525c1.367 0 2.475 1.108 2.475 2.475s-1.108 2.475-2.475 2.475S8.25 12.367 8.25 11s1.108-2.475 2.475-2.475"/>
        <g transform="translate(0 .273)">
            <mask id="hu09qblnfb" fill="#fff">
                <use xlink:href="#96ros4hfoa"/>
            </mask>
            <path fill="#021924" d="M10.725.002C4.811.002 0 4.813 0 10.727c0 3.842 2.032 7.218 5.077 9.112-.078-.694-.12-1.402-.125-2.115-2.016-1.666-3.302-4.184-3.302-6.997 0-5.004 4.071-9.075 9.075-9.075S19.8 5.723 19.8 10.727c0 2.813-1.286 5.331-3.302 6.997-.005.713-.047 1.421-.125 2.115 3.045-1.894 5.077-5.27 5.077-9.112C21.45 4.813 16.639.002 10.725.002" mask="url(#hu09qblnfb)"/>
        </g>
        <path fill="#021924" d="M7.11 14.371c-.825-.884-1.335-2.068-1.335-3.371 0-2.73 2.22-4.95 4.95-4.95s4.95 2.22 4.95 4.95c0 1.303-.51 2.487-1.336 3.371.502.294.931.651 1.271 1.062 1.065-1.172 1.715-2.728 1.715-4.433 0-3.64-2.96-6.6-6.6-6.6-3.64 0-6.6 2.96-6.6 6.6 0 1.705.65 3.261 1.715 4.433.34-.41.769-.768 1.27-1.062"/>
    </g>
</svg>
