<?xml version="1.0" encoding="UTF-8"?>
<svg width="20px" height="20px" viewBox="0 0 20 20" version="1.1" xmlns="http://www.w3.org/2000/svg" xmlns:xlink="http://www.w3.org/1999/xlink">
    <!-- Generator: Sketch 59.1 (86144) - https://sketch.com -->
    <title>ic_comment_24px</title>
    <desc>Created with Sketch.</desc>
    <defs>
        <path d="M19.99,2 C19.99,0.9 19.1,0 18,0 L2,0 C0.9,0 0,0.9 0,2 L0,14 C0,15.1 0.9,16 2,16 L16,16 L20,20 L19.99,2 Z M16,12 L4,12 L4,10 L16,10 L16,12 Z M16,9 L4,9 L4,7 L16,7 L16,9 Z M16,6 L4,6 L4,4 L16,4 L16,6 Z" id="path-1"></path>
    </defs>
    <g id="01-Mobile-APP-design-iOS-v2" stroke="none" stroke-width="1" fill="none" fill-rule="evenodd">
        <g id="Comments-Mobile" transform="translate(-30.000000, -707.000000)">
            <g id="ic_comment_24px" transform="translate(30.000000, 707.000000)">
                <mask id="mask-2" fill="white">
                    <use xlink:href="#path-1"></use>
                </mask>
                <use id="Shape" fill="#FFFFFF" fill-rule="nonzero" xlink:href="#path-1"></use>
            </g>
        </g>
    </g>
</svg>