<svg xmlns="http://www.w3.org/2000/svg" width="24" height="24" viewBox="0 0 24 24">
    <defs>
        <filter id="6t0xo7e30a">
            <feColorMatrix in="SourceGraphic" values="0 0 0 0 1.000000 0 0 0 0 1.000000 0 0 0 0 1.000000 0 0 0 1.000000 0"/>
        </filter>
    </defs>
    <g fill="none" fill-rule="evenodd" opacity=".7">
        <g filter="url(#6t0xo7e30a)" transform="translate(-204 -6085)">
            <g>
                <path d="M0 0L24 0 24 24 0 24z" transform="translate(204 6085)"/>
                <path fill="#000" fill-rule="nonzero" d="M11.5 2C6.81 2 3 5.81 3 10.5c0 4.69 3.81 8.5 8.5 8.5h.5v3c4.86-2.34 8-7 8-11.5C20 5.81 16.19 2 11.5 2zm1 14.5h-2v-2h2v2zm0-3.5h-2c0-3.25 3-3 3-5 0-1.1-.9-2-2-2s-2 .9-2 2h-2c0-2.21 1.79-4 4-4s4 1.79 4 4c0 2.5-3 2.75-3 5z" transform="translate(204 6085)"/>
            </g>
        </g>
    </g>
</svg>
