<svg xmlns="http://www.w3.org/2000/svg" width="40" height="43" viewBox="0 0 40 43">
    <g fill="none" fill-rule="evenodd" opacity=".7">
        <g fill="#FFF" fill-rule="nonzero">
            <g>
                <path d="M20.506 26.077c-2.759 0-4.598 9.017-4.598 12.068 0 3.052 2.529 4.439 4.828 4.439 2.298 0 4.46-1.85 4.46-4.485 0-3.144-1.886-12.022-4.69-12.022zM37.195 0l-4.873 4.855C29.057 2.08 24.828.416 20.23.416 9.793.416 1.38 8.877 1.38 19.373c0 4.624 1.654 8.878 4.413 12.16L.23 37.128l2.483 2.497L39.678 2.45 37.195 0zM4.782 19.42c0-8.6 6.942-15.582 15.494-15.582 3.678 0 7.034 1.294 9.701 3.421L27.54 9.71c-2.023-1.525-4.551-2.45-7.264-2.45-6.713 0-12.092 5.456-12.092 12.16 0 2.728.92 5.271 2.437 7.306l-2.437 2.404c-2.115-2.635-3.402-6.01-3.402-9.71zm17.149-4.116c-.506-.23-1.103-.323-1.701-.323-2.437 0-4.414 1.988-4.414 4.438 0 .601.138 1.203.322 1.711l-2.943 2.96c-.873-1.342-1.379-2.96-1.379-4.67 0-4.717 3.77-8.508 8.46-8.508 1.701 0 3.31.508 4.644 1.387l-2.989 3.005zM11.172 36.018c.69.37 1.426.74 2.161 1.017.046-.693.138-1.988.414-3.513-.046 0-.046-.047-.092-.047l-2.483 2.543zM34.253 12.761c.965 2.035 1.471 4.254 1.471 6.658 0 6.011-3.402 11.236-8.322 13.825.276 1.48.414 2.728.46 3.514 6.62-2.913 11.264-9.57 11.264-17.339 0-3.329-.827-6.427-2.344-9.154l-2.53 2.496z" transform="translate(-247 -1800) translate(247 1800)"/>
                <path d="M32.368 19.42c0-1.434-.23-2.775-.69-4.023l-2.988 3.005c.046.324.046.694.046 1.017 0 2.82-1.38 5.318-3.449 6.843.552 1.064 1.012 2.266 1.38 3.514 3.402-2.127 5.7-5.964 5.7-10.357z" transform="translate(-247 -1800) translate(247 1800)"/>
            </g>
        </g>
    </g>
</svg>
