<svg xmlns="http://www.w3.org/2000/svg" width="27" height="16" viewBox="0 0 27 16">
    <path fill="#FFF" d="M11.438 1.451c2.43 0 4.338 1.919 4.338 4.36 0 2.998-2.682 5.44-6.744 9.15L7.888 16l-1.144-1.047C2.682 11.251 0 8.81 0 5.812c0-2.442 1.909-4.36 4.338-4.36 1.373 0 2.69.641 3.55 1.656.86-1.015 2.177-1.657 3.55-1.657zM22.77.002l.065.007c.115.03.115.03.115.173v2.88l.004.032c.014.04.014.04.068.04h2.826l.065.007c.115.03.115.03.115.173v1.134l-.007.065c-.029.115-.029.115-.173.115h-2.826l-.032.005c-.04.013-.04.013-.04.067v2.772l-.007.065c-.029.115-.029.115-.173.115h-1.134l-.065-.007c-.115-.029-.115-.029-.115-.173V4.7l-.005-.031c-.013-.04-.013-.04-.067-.04h-2.826l-.065-.008c-.115-.029-.115-.029-.115-.173V3.314l.007-.065c.029-.115.029-.115.173-.115h2.826l.031-.004c.041-.014.041-.014.041-.068V.182l.007-.065c.029-.115.029-.115.173-.115h1.134z"/>
</svg>
