<svg xmlns="http://www.w3.org/2000/svg" width="24" height="22" viewBox="0 0 18 22">
    <defs>
        <path d="M26 26H0V0h26z"/>
    </defs>
    <g fill="none" fill-rule="evenodd" transform="translate(-4 -1)">
        <mask fill="#fff">
            <use />
        </mask>
        <path fill="#000" fill-rule="nonzero" d="M4.333 14.083c0 4.767 3.9 8.667 8.667 8.667 4.767 0 8.667-3.9 8.667-8.667H19.5c0 3.575-2.925 6.5-6.5 6.5s-6.5-2.925-6.5-6.5 2.925-6.5 6.5-6.5v4.334L18.417 6.5 13 1.083v4.334c-4.767 0-8.667 3.9-8.667 8.666zm7.367 3.25h-.867v-3.575l-1.083.325v-.758l1.95-.65h.108v4.658H11.7zm4.658-1.95c0 .325 0 .65-.108.867l-.325.65s-.325.325-.542.325c-.216 0-.433.108-.65.108-.216 0-.433 0-.65-.108-.216-.108-.325-.217-.541-.325-.217-.108-.217-.325-.325-.65-.109-.325-.109-.542-.109-.867v-.758c0-.325 0-.65.109-.867l.325-.65s.325-.325.541-.325c.217 0 .434-.108.65-.108.217 0 .434 0 .65.108.217.109.325.217.542.325.217.109.217.325.325.65.108.325.108.542.108.867v.758zm-.866-.866v-.542s-.109-.217-.109-.325c0-.108-.108-.108-.216-.217-.109-.108-.217-.108-.325-.108-.109 0-.217 0-.325.108l-.217.217s-.108.217-.108.325v2.167s.108.216.108.325c0 .108.108.108.217.216.108.109.216.109.325.109.108 0 .216 0 .325-.109l.216-.216s.109-.217.109-.325v-1.625z" mask="url(#b)"/>
    </g>
</svg>
