<svg class="sc-jDKSgr PVzRy" xmlns="http://www.w3.org/2000/svg" width="35px" height="50" viewBox="0 0 50 50"><g fill="none" fill-rule="evenodd"><circle cx="25" cy="25" r="25" fill="#001925"></circle><g fill-rule="nonzero"><path fill="#409FD8" d="M24.892 3C12.754 3 3 12.802 3 25c0 9.584 6.069 17.644 14.522 20.693V16.505c0-.218 0-.218.217-.436 0 0 .217-.218.433-.218h3.902c.217 0 .217 0 .433.218 0 0 .217.218.217.436v.653s.217 0 .217-.217c1.084-.872 2.167-1.307 3.685-1.307 1.95 0 3.25.653 4.335 1.742 1.083 1.307 1.517 2.832 1.517 5.01v8.495c0 2.178-.434 3.921-1.517 5.01-1.084 1.307-2.385 1.743-4.335 1.743-.65 0-1.3-.218-1.951-.436a4.709 4.709 0 0 1-1.734-1.09h-.217v10.674c.867 0 1.517.218 2.384.218C37.246 47 47 37.198 47 25c-.217-12.198-9.97-22-22.108-22zM39.63 33.277h-1.518a1.947 1.947 0 0 1-1.95-1.96v-10.02c0-1.09.867-1.96 1.95-1.96h.867c-2.167-5.664-7.803-9.802-14.088-9.802-6.503 0-11.922 4.138-14.089 9.802h.867c1.084 0 1.95.87 1.95 1.96v10.02c0 1.089-.866 1.96-1.95 1.96h-1.516c-.867 0-1.734-.653-1.951-1.742a17.832 17.832 0 0 1-1.3-6.753c0-10.02 8.02-18.079 17.99-18.079 9.97 0 17.99 8.06 17.99 18.08a17.85 17.85 0 0 1-1.3 6.752c-.217 1.089-1.084 1.742-1.951 1.742z"></path><path fill="#DCECF9" d="M23.908 32.806s.219 0 0 0h3.931V20.032H23.69l-1.31.406c-.219 0-.219.203-.219.405v2.433h1.529s.218 0 .218.203v9.327c0-.202 0 0 0 0z"></path></g></g></svg>