<svg xmlns="http://www.w3.org/2000/svg" xmlns:xlink="http://www.w3.org/1999/xlink" width="30" height="24" viewBox="0 0 30 24">
    <defs>
        <filter id="votqombpwa">
            <feColorMatrix in="SourceGraphic" values="0 0 0 0 1.000000 0 0 0 0 1.000000 0 0 0 0 1.000000 0 0 0 1.000000 0"/>
        </filter>
        <path id="tfu8cbsfpb" d="M0 0L30 0 30 24 0 24z"/>
    </defs>
    <g fill="none" fill-rule="evenodd" opacity=".7">
        <g>
            <g filter="url(#votqombpwa)" transform="translate(-219 -830) translate(205 815)">
                <g transform="translate(14 15)">
                    <mask id="uulesray1c" fill="#fff">
                        <use xlink:href="#tfu8cbsfpb"/>
                    </mask>
                    <path fill="#000" d="M2.16 18.462l1.265 4.835c.11.415.481.703.906.703h3.722c.517 0 .935-.426.935-.941 0-.082-.01-.16-.028-.238l-1.14-4.36H2.16zm22.769-4.093c-.514 0-.935.42-.935.938 0 .256.102.501.286.679l1.711 1.712c.35.384.942.409 1.325.06.378-.351.407-.944.06-1.328-.021-.021-.04-.04-.06-.057l-1.711-1.72c-.177-.184-.425-.284-.676-.284zm1.714-4.103c-.52 0-.942.42-.942.942 0 .518.418.941.938.941h2.423c.517 0 .938-.423.938-.941 0-.519-.418-.942-.938-.942h-2.42zM.938 5.83C.421 5.833 0 6.252 0 6.77v8.875c0 .518.421.938.938.938h7.073V5.83H.938zm25.694-1.397c-.244.008-.471.11-.641.285l-1.71 1.712c-.376.359-.39.952-.029 1.328.354.377.95.391 1.325.032.007-.01.017-.017.028-.028l1.71-1.72c.372-.365.376-.958.015-1.328-.184-.188-.436-.288-.698-.28zM20.066 0c-.142.004-.28.036-.407.103L9.88 5.223v11.97l9.778 5.12c.46.238 1.027.064 1.264-.398.071-.132.11-.28.11-.434V.934c-.004-.518-.429-.938-.942-.934h-.025z" mask="url(#uulesray1c)"/>
                </g>
            </g>
        </g>
    </g>
</svg>
