<?xml version="1.0" standalone="no"?>
<!DOCTYPE svg PUBLIC "-//W3C//DTD SVG 20010904//EN"
 "http://www.w3.org/TR/2001/REC-SVG-20010904/DTD/svg10.dtd">
<svg version="1.0" xmlns="http://www.w3.org/2000/svg"
 width="512.000000pt" height="512.000000pt" viewBox="0 0 512.000000 512.000000"
 preserveAspectRatio="xMidYMid meet">
<metadata>
Created by potrace 1.15, written by Peter Selinger 2001-2017
</metadata>
<g transform="translate(0.000000,512.000000) scale(0.100000,-0.100000)" stroke="none">
<path d="M2467 4218 c-16 -12 -17 -100 -20 -1233 l-2 -1220 -260 -6 c-291 -6
-333 -14 -450 -84 -75 -44 -118 -92 -158 -175 -25 -53 -32 -80 -35 -151 -7
-133 33 -234 126 -321 106 -99 215 -138 408 -145 322 -13 503 100 581 364 16
53 18 142 21 1066 l3 1007 22 0 c13 0 198 -22 411 -50 213 -27 403 -50 421
-50 52 0 59 17 52 128 -8 126 -29 206 -82 317 -120 250 -356 397 -845 524
-175 46 -170 45 -193 29z m340 -314 c275 -92 419 -194 494 -351 17 -35 29 -66
27 -69 -3 -2 -143 14 -312 36 -169 22 -313 40 -321 40 -13 0 -15 30 -15 190 0
118 4 190 10 190 5 0 58 -16 117 -36z m-365 -2464 c-1 -48 -11 -114 -22 -151
-31 -104 -90 -150 -222 -170 -233 -36 -428 58 -428 206 0 104 88 178 235 198
17 2 122 4 235 3 l205 -1 -3 -85z"/>
</g>
</svg>
