<?xml version="1.0" encoding="utf-8"?>
<!-- Svg Vector Icons : http://www.onlinewebfonts.com/icon -->
<!DOCTYPE svg PUBLIC "-//W3C//DTD SVG 1.1//EN" "http://www.w3.org/Graphics/SVG/1.1/DTD/svg11.dtd">
<svg version="1.1" xmlns="http://www.w3.org/2000/svg" xmlns:xlink="http://www.w3.org/1999/xlink"  width="18px" height="18px" x="0px" y="0px" viewBox="0 0 1000 1000" enable-background="new 0 0 1000 1000" xml:space="preserve">
<metadata> Svg Vector Icons : http://www.onlinewebfonts.com/icon </metadata>
  <g><path d="M596.5,500l373.7-373.7c26.5-26.5,26.5-69.9,0-96.4c-26.5-26.5-69.9-26.5-96.4,0L500,403.5L126.3,29.9c-26.5-26.5-69.9-26.5-96.4,0c-26.5,26.5-26.5,69.9,0,96.4L403.6,500L29.9,873.7c-26.5,26.5-26.5,69.9,0,96.5c26.5,26.5,69.9,26.5,96.4,0L500,596.4l373.7,373.7c26.5,26.5,69.9,26.5,96.4,0c26.5-26.5,26.5-69.9,0-96.5L596.5,500z"/></g>
</svg>
