<svg xmlns="http://www.w3.org/2000/svg" xmlns:xlink="http://www.w3.org/1999/xlink" width="46" height="46" viewBox="0 0 46 46">
    <defs>
        <rect width="40" height="40" rx="2"/>
        <filter width="127.5%" height="127.5%" x="-13.8%" y="-8.8%" filterUnits="objectBoundingBox">
            <feOffset dy="2" in="SourceAlpha" result="shadowOffsetOuter1"/>
            <feGaussianBlur in="shadowOffsetOuter1" result="shadowBlurOuter1" stdDeviation="1.5"/>
            <feColorMatrix in="shadowBlurOuter1" values="0 0 0 0 0 0 0 0 0 0 0 0 0 0 0 0 0 0 0.2 0"/>
        </filter>
    </defs>
    <g fill="none" fill-rule="evenodd">
        <g transform="translate(3 1)">
            <use fill="#000" filter="url(#facebook_a)" />
            <use fill="#FFF" />
        </g>
        <g fill-rule="nonzero">
            <path fill="#4267B2" d="M32.786 10H13.214c-.67 0-1.214.543-1.214 1.214v19.572c0 .67.543 1.214 1.214 1.214h10.545v-8.508h-2.864v-3.33h2.864v-2.45c0-2.842 1.737-4.39 4.27-4.39.855-.001 1.708.042 2.557.13v2.97h-1.745c-1.38 0-1.65.652-1.65 1.616v2.12h3.3l-.428 3.33h-2.89V32h5.613c.67 0 1.214-.543 1.214-1.214V11.214c0-.67-.543-1.214-1.214-1.214z"/>
            <path fill="#FFF" d="M26.781 32v-8.351h2.988l.446-3.27H26.78V18.3c0-.946.28-1.587 1.717-1.587h1.835v-2.919a26.843 26.843 0 0 0-2.664-.126c-2.64 0-4.44 1.519-4.44 4.308v2.405H20.25v3.269h2.98V32h3.551z"/>
        </g>
    </g>
</svg>
