<svg width="20" height="20" viewBox="0 0 20 20" fill="none" xmlns="http://www.w3.org/2000/svg">
<path fill-rule="evenodd" clip-rule="evenodd" d="M10.267 0.102994C10.117 -0.0340059 9.885 -0.0340059 9.734 0.102994L0.128002 8.82799C-0.0299981 8.96799 -0.0429981 9.20799 0.0980019 9.36399C0.174002 9.44699 0.282002 9.49299 0.395002 9.48999H1.81V19.628C1.81 19.843 1.986 19.999 2.204 19.999H7.503C7.721 19.999 7.897 19.843 7.897 19.628V14.766H12.014V19.628C12.014 19.843 12.19 19.999 12.408 19.999H17.708C17.925 19.999 18.101 19.843 18.101 19.628V9.49099H19.605C19.765 9.49499 19.912 9.39899 19.972 9.25199C20.032 9.10499 19.992 8.93799 19.872 8.83299L10.267 0.102994Z" fill="black"/>
</svg>
