<svg xmlns="http://www.w3.org/2000/svg" xmlns:xlink="http://www.w3.org/1999/xlink" width="12" height="16" viewBox="0 0 12 16">
    <defs>
        <path id="lock_icon" d="M0 0L11.774 0 11.774 15.429 0 15.429z"/>
    </defs>
    <g fill="none" fill-rule="evenodd">
        <g>
            <g transform="translate(-73 -1820) translate(73 1820)">
                <mask id="rmizpa6rpb" fill="#fff">
                    <use xlink:href="#lock_icon"/>
                </mask>
                <path fill="#FFF" d="M3.117 6.281l-.004-2.11c0-1.452 1.18-2.633 2.632-2.635 1.452 0 2.633 1.181 2.633 2.631l.003 2.11-5.264.004zm7.224-.003h-.424l-.002-2.11C9.914 1.867 8.043-.003 5.745 0c-2.3.002-4.17 1.872-4.168 4.17l.004 2.111H1.43C.64 6.283-.002 6.924 0 7.714v6.283c0 .79.643 1.432 1.433 1.432l8.911-.006c.79 0 1.431-.64 1.43-1.431V7.707c0-.79-.643-1.43-1.433-1.43z" mask="url(#rmizpa6rpb)"/>
            </g>
        </g>
    </g>
</svg>
