<?xml version="1.0" encoding="UTF-8"?>
<svg width="30px" height="14px" viewBox="0 0 30 14" version="1.1" xmlns="http://www.w3.org/2000/svg" xmlns:xlink="http://www.w3.org/1999/xlink">
    <g stroke="none" stroke-width="1" fill="none" fill-rule="evenodd">
        <g transform="translate(-656.000000, -651.000000)">
            <g transform="translate(591.000000, 564.000000)">
                <g>
                    <g transform="translate(65.000000, 87.000000)">
                        <g>
                            <rect stroke="#40A2DB" x="0.5" y="0.5" width="29" height="13" rx="2"></rect>
                            <path d="M12.46875,7.5 C12.7760417,5.5 13.4479167,4.5 14.484375,4.5 C16.0390625,4.5 16.5,7 16.5,7.5" stroke="#40A2DB"></path>
                            <path d="M16.5,9.5 C15.9427083,10.1666667 15.3046875,10.5 14.5859375,10.5 C13.5078125,10.5 12.46875,8.4609375 12.46875,7.4609375" stroke="#40A2DB"></path>
                            <path d="M16.5,7.5 L12.46875,7.5" stroke="#40A2DB" stroke-linecap="square"></path>
                            <path d="M18.5,4.5 L20.5,10.5" stroke="#40A2DB" stroke-linecap="square"></path>
                            <path d="M20.5,10.5 L21.5,5.5" stroke="#40A2DB" stroke-linecap="square"></path>
                            <path d="M21.5,5.5 L22.5,10.5" stroke="#40A2DB" stroke-linecap="square"></path>
                            <path d="M24.5,4.5 L22.5,10.5" stroke="#40A2DB" stroke-linecap="square"></path>
                            <path d="M4.5,10.5 L4.5,3.5" stroke="#40A2DB" stroke-linecap="square"></path>
                            <path d="M4.5,3.5 L9.5,10.5" stroke="#40A2DB" stroke-linecap="square"></path>
                            <path d="M9.5,10.5 L9.5,3.5" stroke="#40A2DB" stroke-linecap="square"></path>
                            <rect fill="#40A2DB" x="18" y="4" width="1" height="1"></rect>
                            <rect fill="#40A2DB" x="24" y="4" width="1" height="1"></rect>
                        </g>
                    </g>
                </g>
            </g>
        </g>
    </g>
</svg>