<svg xmlns="http://www.w3.org/2000/svg" width="50" height="50" viewBox="0 0 50 50">
    <g fill="none" fill-rule="evenodd">
        <circle cx="25" cy="25" r="25" fill="#001925"/>
        <g fill-rule="nonzero">
            <path fill="#409FD8" d="M21.892 0C9.754 0 0 9.802 0 22c0 9.584 6.069 17.644 14.522 20.693V13.505c0-.218 0-.218.217-.436 0 0 .217-.218.433-.218h3.902c.217 0 .217 0 .433.218 0 0 .217.218.217.436v.653s.217 0 .217-.217c1.084-.872 2.167-1.307 3.685-1.307 1.95 0 3.25.653 4.335 1.742 1.083 1.307 1.517 2.832 1.517 5.01v8.495c0 2.178-.434 3.921-1.517 5.01-1.084 1.307-2.385 1.743-4.335 1.743-.65 0-1.3-.218-1.951-.436-.65-.218-1.3-.653-1.734-1.09h-.217v10.674c.867 0 1.517.218 2.384.218C34.246 44 44 34.198 44 22 43.783 9.802 34.03 0 21.892 0zM36.63 30.277h-1.518c-1.083 0-1.95-.871-1.95-1.96v-10.02c0-1.09.867-1.96 1.95-1.96h.867c-2.167-5.664-7.803-9.802-14.088-9.802-6.503 0-11.922 4.138-14.089 9.802h.867c1.084 0 1.95.87 1.95 1.96v10.02c0 1.089-.866 1.96-1.95 1.96H7.153c-.867 0-1.734-.653-1.951-1.742-.867-2.179-1.3-4.357-1.3-6.753 0-10.02 8.02-18.079 17.99-18.079 9.97 0 17.99 8.06 17.99 18.08 0 2.395-.434 4.573-1.3 6.752-.217 1.089-1.084 1.742-1.951 1.742z" transform="translate(3 3)"/>
            <path fill="#DCECF9" d="M20.908 29.806s.219 0 0 0h3.931V17.235v-.203H20.69l-1.31.406c-.219 0-.219.203-.219.405v2.433H20.69s.218 0 .218.203v9.327c0-.202 0 0 0 0z" transform="translate(3 3)"/>
        </g>
    </g>
</svg>