<?xml version="1.0" encoding="UTF-8"?>
<svg width="18px" height="18px" viewBox="0 0 18 18" version="1.1" xmlns="http://www.w3.org/2000/svg" xmlns:xlink="http://www.w3.org/1999/xlink">
    <title>ic_call_24px</title>
    <defs>
        <path d="M17.01,12.38 C15.78,12.38 14.59,12.18 13.48,11.82 C13.13,11.7 12.74,11.79 12.47,12.06 L10.9,14.03 C8.07,12.68 5.42,10.13 4.01,7.2 L5.96,5.54 C6.23,5.26 6.31,4.87 6.2,4.52 C5.83,3.41 5.64,2.22 5.64,0.99 C5.64,0.45 5.19,0 4.65,0 L1.19,0 C0.65,0 0,0.24 0,0.99 C0,10.28 7.73,18 17.01,18 C17.72,18 18,17.37 18,16.82 L18,13.37 C18,12.83 17.55,12.38 17.01,12.38 Z" id="path-1"></path>
    </defs>
    <g id="01-App-Design" stroke="none" stroke-width="1" fill="none" fill-rule="evenodd">
        <g id="3.0-player-AL" transform="translate(-129.000000, -719.000000)">
            <g id="ic_call_24px" transform="translate(129.000000, 719.000000)">
                <mask id="mask-2" fill="white">
                    <use xlink:href="#path-1"></use>
                </mask>
                <use id="Path" fill="#FFFFFF" fill-rule="nonzero" xlink:href="#path-1"></use>
            </g>
        </g>
    </g>
</svg>