<svg xmlns="http://www.w3.org/2000/svg" width="24" height="24" viewBox="0 0 24 24">
    <defs>
        <filter id="9uwdc69j3a">
            <feColorMatrix in="SourceGraphic" values="0 0 0 0 1.000000 0 0 0 0 1.000000 0 0 0 0 1.000000 0 0 0 1.000000 0"/>
        </filter>
    </defs>
    <g fill="none" fill-rule="evenodd" opacity=".703">
        <g filter="url(#9uwdc69j3a)" transform="translate(-204 -6151)">
            <g>
                <path d="M0 0L24 0 24 24 0 24z" transform="translate(204 6151)"/>
                <path fill="#000" fill-rule="nonzero" d="M21 6h-2v9H6v2c0 .55.45 1 1 1h11l4 4V7c0-.55-.45-1-1-1zm-4 6V3c0-.55-.45-1-1-1H3c-.55 0-1 .45-1 1v14l4-4h10c.55 0 1-.45 1-1z" transform="translate(204 6151)"/>
            </g>
        </g>
    </g>
</svg>
