<svg xmlns="http://www.w3.org/2000/svg" width="90" height="90" viewBox="0 0 90 90">
    <g fill="none" fill-rule="evenodd">
        <circle cx="45" cy="45" r="45" fill="#EEE" fill-rule="nonzero"/>
        <g fill="#000">
            <path fill-opacity=".4" d="M48 57.768a2.51 2.51 0 0 0-2.5-2.518 2.51 2.51 0 0 0-2.5 2.518v6.964a2.51 2.51 0 0 0 2.5 2.518 2.51 2.51 0 0 0 2.5-2.518v-6.964z"/>
            <path d="M48 25.716c-.034-1.363-1.138-2.466-2.5-2.466a2.51 2.51 0 0 0-2.5 2.457v7.025a2.51 2.51 0 0 0 2.5 2.518 2.51 2.51 0 0 0 2.5-2.518v-6.955-.061z"/>
            <path fill-opacity=".3" d="M60.26 56.935l-4.945-4.946a2.532 2.532 0 0 0-3.576 0 2.532 2.532 0 0 0 0 3.576l4.946 4.946c.985.985 2.59.985 3.576 0a2.532 2.532 0 0 0 0-3.576z"/>
            <path d="M29.698 32.527l4.988 4.985c.985.984 2.59.984 3.575 0a2.528 2.528 0 0 0 0-3.573l-4.944-4.95-.035-.034a2.53 2.53 0 0 0-3.584 3.572z"/>
            <path fill-opacity=".2" d="M64.48 42.25s-.009 0 0 0h-6.96c-1.39 0-2.52 1.12-2.52 2.5s1.13 2.5 2.52 2.5h6.96c1.39 0 2.52-1.12 2.52-2.5s-1.13-2.5-2.52-2.5z"/>
            <path fill-opacity=".6" d="M32.482 47.25A2.51 2.51 0 0 0 35 44.75a2.51 2.51 0 0 0-2.518-2.5h-6.955-.061c-1.372.034-2.466 1.138-2.466 2.5a2.51 2.51 0 0 0 2.457 2.5h7.025z"/>
            <path fill-opacity=".1" d="M55.315 37.506l4.946-4.943a2.53 2.53 0 0 0 0-3.574 2.533 2.533 0 0 0-3.576 0l-4.946 4.934a2.53 2.53 0 0 0 0 3.574 2.51 2.51 0 0 0 3.576.009z"/>
            <path fill-opacity=".5" d="M34.68 51.995l-4.94 4.941-.035.035a2.528 2.528 0 0 0 .035 3.538 2.536 2.536 0 0 0 3.537.044l4.985-4.985a2.53 2.53 0 0 0-3.582-3.573z"/>
        </g>
    </g>
</svg>